<?xml version="1.0" encoding="utf-8"?>
<!-- Generator: Adobe Illustrator 16.0.0, SVG Export Plug-In . SVG Version: 6.00 Build 0)  -->
<!DOCTYPE svg PUBLIC "-//W3C//DTD SVG 1.1//EN" "http://www.w3.org/Graphics/SVG/1.1/DTD/svg11.dtd">
<svg version="1.1" id="レイヤー_1" xmlns="http://www.w3.org/2000/svg" xmlns:xlink="http://www.w3.org/1999/xlink" x="0px"
	 y="0px" width="320px" height="320px" viewBox="0 0 320 320" enable-background="new 0 0 320 320" xml:space="preserve">
<rect width="320" height="320"/>
<g>
	<path fill="#FFFFFF" d="M98.931,144.109l6.56-2.24v10.161h11.28v5.199h-11.28v25.202c0,5.52,1.68,8.561,5.92,8.561
		c2,0,3.36-0.24,4.48-0.641l0.4,5.12c-1.44,0.641-3.68,1.04-6.48,1.04c-10.56,0-10.88-9.6-10.88-14.24v-25.042h-6.72v-5.199h6.72
		V144.109z"/>
	<path fill="#FFFFFF" d="M127.25,144.109l6.56-2.24v10.161h11.28v5.199h-11.28v25.202c0,5.52,1.68,8.561,5.92,8.561
		c2,0,3.36-0.24,4.48-0.641l0.4,5.12c-1.44,0.641-3.68,1.04-6.48,1.04c-10.56,0-10.88-9.6-10.88-14.24v-25.042h-6.72v-5.199h6.72
		V144.109z"/>
	<path fill="#FFFFFF" d="M160.049,159.389c3.041-5.359,8.08-8.399,14.88-8.399c10.32,0,17.76,8.88,17.76,22.241
		c0,16-9.359,23.36-18.96,23.36c-5.76,0-10.56-2.64-13.12-6.96h-0.16v23.841h-6.64V166.03c0-5.681-0.16-10.081-0.32-14.081h6
		l0.4,7.439H160.049z M160.449,178.271c0,8.48,6.32,12.96,12.24,12.96c8.561,0,13.28-7.36,13.28-17.76
		c0-9.041-4.56-17.042-13.04-17.042c-7.44,0-12.48,7.201-12.48,13.521V178.271z"/>
	<path fill="#FFFFFF" d="M223.089,158.669c-1.601-1.04-4.56-2.56-8.479-2.56c-4.801,0-7.361,2.96-7.361,6.48
		c0,3.761,2.48,5.521,8.081,7.921c7.04,2.88,11.12,6.56,11.12,13.12c0,7.76-5.92,12.88-15.44,12.88c-4.32,0-8.48-1.2-11.44-2.96
		l1.84-5.12c2.32,1.36,6.08,2.96,9.84,2.96c5.841,0,8.721-3.12,8.721-7.04c0-4.08-2.32-6.32-8.08-8.641
		c-7.359-2.96-11.12-7.04-11.12-12.32c0-6.8,5.44-12.4,14.24-12.4c4.16,0,7.681,1.199,10.001,2.64L223.089,158.669z"/>
	<path fill="#FFFFFF" d="M234.848,158.83c0-2.96,1.92-5.12,4.721-5.12c2.88,0,4.72,2.16,4.72,5.12c0,2.88-1.84,5.121-4.72,5.121
		C236.527,163.95,234.848,161.47,234.848,158.83z M234.848,191.551c0-2.96,1.92-5.12,4.721-5.12c2.88,0,4.72,2.16,4.72,5.12
		c0,2.8-1.84,5.04-4.72,5.04C236.527,196.591,234.848,194.19,234.848,191.551z"/>
	<path fill="#FFFFFF" d="M252.688,199.23h-5.361l25.361-65.521h5.52L252.688,199.23z"/>
	<path fill="#FFFFFF" d="M283.167,199.23h-5.36l25.361-65.521h5.52L283.167,199.23z"/>
</g>
<g>
	<g id="layer1" transform="translate(52.390088,-25.058597)">
		<path id="path1009" fill="#FFFFFF" d="M-36.422,148.538l29.968,40.286l-30.158,32.755h6.788l26.403-28.677l21.332,28.677h23.098
			L9.354,179.026l28.071-30.488h-6.787L6.322,174.949l-19.646-26.411H-36.422z M-26.441,153.564h10.611l46.856,62.986H20.415
			L-26.441,153.564z"/>
	</g>
</g>
<g>
</g>
<g>
</g>
<g>
</g>
<g>
</g>
<g>
</g>
<g>
</g>
<g>
</g>
<g>
</g>
<g>
</g>
<g>
</g>
<g>
</g>
<g>
</g>
<g>
</g>
<g>
</g>
<g>
</g>
</svg>
